<svg id="Capa_1" enable-background="new 0 0 511.974 511.974" height="512" viewBox="0 0 511.974 511.974" width="512" xmlns="http://www.w3.org/2000/svg"><g><path d="m433.84 182.328c0-96.554-78.274-174.828-174.843-174.828-11.418 0-22.589 1.097-33.39 3.198h-.015c-18.448 5.129-34.44 16.131-45.812 30.886l-28.522 14.756-26.805 126.527 162.724 130.797 31.816 32.922c16.165-5.904 31.198-14.145 44.729-24.282l.104-.057.008-.026c42.498-31.89 70.006-82.672 70.006-139.893z" fill="#f9f7f8"/><path d="m264.873 7.597c-1.95-.064-3.91-.097-5.876-.097-11.418 0-22.589 1.097-33.39 3.198h-.016c-18.448 5.13-34.44 16.131-45.812 30.887l-28.522 14.756-26.805 126.527 10.007 8.044c6.584-82.134 58.345-151.528 130.414-183.315z" fill="#efedef"/><g id="XMLID_84_"><g><path d="m356.385 269.749c0 26.885-17.49 59.517-37.391 76.838-18.711 6.845-38.921 10.568-59.996 10.568-96.553 0-174.828-78.275-174.828-174.828 0-85.135 60.846-156.055 141.423-171.629-18.448 5.13-34.44 16.131-45.812 30.886-11.403 14.756-18.17 33.25-18.17 53.337 0 48.269 39.137 87.406 87.422 87.406h19.947c24.134 0 45.982 9.78 61.804 25.602 15.82 15.823 25.601 37.686 25.601 61.82z" fill="#aa9ea9"/></g></g><g><g id="XMLID_9_"><g><path d="m133.742 208.7c0-39.07 10.212-75.749 28.092-107.538-.146-2.062-.224-4.142-.224-6.24 0-20.086 6.768-38.582 18.17-53.337 11.372-14.756 27.364-25.757 45.812-30.887-80.577 15.575-141.423 86.495-141.423 171.63 0 65.534 36.066 122.636 89.425 152.57-25.104-35.711-39.852-79.23-39.852-126.198z" fill="#918291"/><path d="m255.987 189.127v83.468 141.5c0 13.37-3.81 26.16-10.63 37.06-6.82 10.91-16.64 19.94-28.66 25.8l-19.417 23.499c-2.104 2.547-5.236 4.021-8.539 4.021h-114.643c-6.137 0-9.512-7.137-5.618-11.88l75.357-91.79c0-26.99 7.62-53.44 21.97-76.3l15.54-24.74 39.48-116.89c1.24-3.67 3.58-6.74 6.58-8.89 3.59-2.573 8.124-3.842 12.833-3.244 9.099 1.156 15.747 9.214 15.747 18.386z" fill="#fbe5c6"/><path d="m95.005 494.068 75.357-91.79c0-26.99 7.62-53.44 21.97-76.3l15.54-24.74 39.48-116.89c.926-2.74 2.478-5.152 4.447-7.09-2.814-3.481-6.86-5.92-11.559-6.517-4.709-.599-9.243.671-12.833 3.244-3 2.15-5.34 5.22-6.58 8.89l-39.48 116.89-15.54 24.74c-14.35 22.86-21.97 49.31-21.97 76.3l-75.357 91.79c-3.894 4.744-.52 11.88 5.618 11.88h22.141c-3.059-2.337-4.041-6.988-1.234-10.407z" fill="#f8d3aa"/><path d="m368.137 400.804 76.285 92.921c3.524 4.292.47 10.749-5.083 10.749h-116.709c-2.921 0-5.69-1.304-7.551-3.556l-19.802-23.964c-24.04-11.72-39.29-36.12-39.29-62.86v-141.5-83.94c0-9.98 8.08-18.06 18.05-18.06 3.87 0 7.53 1.24 10.53 3.39s5.34 5.22 6.58 8.89l39.48 116.89 15.54 24.74c14.35 22.86 21.97 49.31 21.97 76.3z" fill="#fbe5c6"/></g><g><g id="XMLID_10_"><g><path d="m300.787 337.534c9.916 0 16.418-10.55 11.776-19.312-.033-.062-.066-.124-.099-.186-.37-.697-.623-1.429-.75-2.176l-8.291-48.567c-2.593-15.146-15.628-26.139-30.995-26.139-5.906 0-11.556 1.622-16.44 4.632v26.808 64.94z" fill="#f8d3aa"/><path d="m309.037 391.984v71.31h-32.79c-12.77-12.88-20.26-30.47-20.26-49.2v-141.5c0-4.54 1.84-8.65 4.82-11.62 2.97-2.98 7.08-4.82 11.62-4.82 8.02 0 14.86 5.78 16.21 13.67l8.29 48.56c.4 2.34 1.18 4.6 2.29 6.69 6.45 12.11 9.82 25.63 9.82 39.35z" fill="#fbe5c6"/></g><g><g id="XMLID_11_"><g><path d="m255.987 335.854v-63.26-26.786c-4.787-2.949-10.417-4.654-16.44-4.654-7.415 0-14.62 2.635-20.281 7.414-5.672 4.785-9.479 11.443-10.715 18.731l-8.29 48.558c-.131.765-.389 1.501-.754 2.186-.032.06-.064.12-.096.181-4.237 7.996 1.555 17.631 10.604 17.631h45.972z" fill="#f8d3aa"/><path d="m255.987 272.594v141.5c0 12.25-3.2 24.02-8.99 34.29h-44.06v-56.4-27.56c0-6.86.84-13.67 2.49-20.28s4.1-13.01 7.33-19.07c1.11-2.09 1.89-4.35 2.29-6.69l8.29-48.56c.67-3.95 2.72-7.36 5.6-9.79 2.89-2.44 6.6-3.88 10.61-3.88 9.08 0 16.44 7.36 16.44 16.44z" fill="#fbe5c6"/></g></g></g></g></g></g><circle cx="256.381" cy="91.53" fill="#aa9ea9" r="25.246"/></g><path d="m347.795 504.474c-2.921 0-5.69-1.304-7.551-3.556l-19.802-23.964c-24.04-11.72-39.29-36.12-39.29-62.86v-141.5-83.94c0-5.082 2.092-9.673 5.465-12.954-.644-.625-1.322-1.194-2.05-1.716-3-2.15-6.66-3.39-10.53-3.39-9.97 0-18.05 8.08-18.05 18.06v83.94 141.5c0 26.74 15.25 51.14 39.29 62.86l19.802 23.964c1.861 2.252 4.63 3.556 7.551 3.556z" fill="#f8d3aa"/></g><g><path d="m364.364 343.594c-3.285-8.023-7.271-15.786-11.848-23.073l-3.071-4.892c7.742-13.995 11.827-29.752 11.827-45.874 0-20.656-6.522-40.296-18.861-56.795-11.16-14.923-26.755-26.41-44.219-32.645-3.557-10.305-13.237-17.219-24.151-17.219-7.042 0-13.428 2.863-18.055 7.487-4.627-4.624-11.013-7.487-18.055-7.487-6.843 0-13.201 2.718-17.871 7.284-8.712-3.035-16.783-7.531-24.035-13.428-3.212-2.614-7.937-2.128-10.551 1.086-2.613 3.214-2.127 7.938 1.087 10.551 7.924 6.445 16.672 11.487 26.085 15.063l-38.124 112.878-15.064 23.99c-14.635 23.308-22.57 50.062-23.068 77.539l-83.456 101.656c-2.628 3.201-2.164 7.927 1.038 10.556 1.395 1.146 3.08 1.703 4.754 1.703 2.167 0 4.318-.935 5.801-2.741l77.602-94.524c.551.129 1.122.204 1.712.204 4.142 0 7.5-3.357 7.5-7.5v-6.609c0-25.612 7.199-50.615 20.819-72.306l15.535-24.74c.313-.498.566-1.031.754-1.588l39.483-116.896c1.45-4.293 5.469-7.177 10-7.177 5.82 0 10.555 4.734 10.555 10.555v61.743c-2.765-1.118-5.782-1.739-8.943-1.739-11.705 0-21.63 8.374-23.601 19.912l-8.293 48.557c-.266 1.552-.774 3.041-1.513 4.428-7 13.151-10.701 27.977-10.701 42.875v27.563c0 4.143 3.358 7.5 7.5 7.5s7.5-3.357 7.5-7.5v-27.563c0-12.449 3.092-24.838 8.942-35.826 1.493-2.804 2.521-5.814 3.058-8.95l8.294-48.558c.736-4.31 4.443-7.438 8.815-7.438 4.931 0 8.943 4.012 8.943 8.942v.001 141.5c0 23.703-13.768 45.729-35.076 56.111-.963.47-1.814 1.14-2.497 1.966l-22.736 27.522c-2.638 3.193-2.188 7.921 1.005 10.559 1.398 1.155 3.09 1.718 4.772 1.718 2.16 0 4.304-.928 5.787-2.724l21.729-26.303c15.295-7.874 27.317-20.639 34.515-35.796 7.198 15.157 19.22 27.922 34.515 35.796l21.729 26.303c1.483 1.796 3.626 2.724 5.786 2.724 1.683 0 3.375-.562 4.772-1.718 3.193-2.638 3.644-7.365 1.006-10.559l-22.736-27.522c-.683-.826-1.534-1.496-2.497-1.966-21.308-10.383-35.075-32.408-35.075-56.111v-141.5-.001c0-4.931 4.012-8.942 8.942-8.942 4.372 0 8.079 3.128 8.815 7.438l8.294 48.559c.535 3.134 1.564 6.145 3.058 8.949 5.85 10.989 8.942 23.378 8.942 35.826v27.563c0 4.143 3.357 7.5 7.5 7.5s7.5-3.357 7.5-7.5v-27.563c0-14.897-3.701-29.724-10.702-42.875-.738-1.388-1.247-2.877-1.513-4.427l-8.294-48.557c-1.97-11.539-11.896-19.913-23.601-19.913-3.161 0-6.177.621-8.942 1.739v-61.745c0-5.82 4.734-10.555 10.555-10.555 4.531 0 8.55 2.885 10 7.178l39.483 116.895c.188.557.441 1.09.754 1.588l15.534 24.741c4.12 6.561 7.71 13.553 10.67 20.78 1.188 2.903 3.989 4.66 6.943 4.66.946 0 1.909-.181 2.839-.562 3.835-1.568 5.67-5.948 4.1-9.781zm-59.655-144.007c25.367 13.778 41.563 40.344 41.563 70.169 0 10.689-2.135 21.185-6.219 30.915l-2.6-4.142z"/><path d="m459.04 499.715-83.437-101.632c-.135-7.253-.806-14.594-2.006-21.866-.675-4.088-4.533-6.848-8.621-6.18-4.087.675-6.854 4.534-6.18 8.621 1.218 7.377 1.835 14.827 1.835 22.145v6.609c0 4.143 3.357 7.5 7.5 7.5.59 0 1.162-.075 1.713-.204l77.601 94.524c1.483 1.807 3.634 2.741 5.801 2.741 1.675 0 3.36-.558 4.755-1.703 3.202-2.627 3.667-7.354 1.039-10.555z"/><path d="m414.165 126.503c6.339 17.912 9.553 36.697 9.553 55.834 0 47.186-20.081 92.421-55.095 124.107-3.071 2.779-3.308 7.521-.528 10.593 1.48 1.637 3.518 2.468 5.562 2.468 1.795 0 3.596-.641 5.03-1.939 38.15-34.524 60.03-83.813 60.03-135.229 0-20.846-3.503-41.314-10.412-60.838-1.382-3.906-5.667-5.95-9.572-4.568s-5.95 5.668-4.568 9.572z"/><path d="m133.545 317.086c1.438 1.312 3.248 1.959 5.052 1.959 2.035 0 4.063-.823 5.543-2.446 2.791-3.06 2.573-7.804-.487-10.595-34.705-31.654-54.609-76.729-54.609-123.667 0-60.512 32.286-113.624 80.537-143.017-11.446 15.812-18.091 35.133-18.091 55.598 0 15.994 4.066 31.821 11.759 45.771 1.367 2.479 3.93 3.879 6.574 3.879 1.225 0 2.467-.3 3.615-.934 3.627-2 4.946-6.562 2.945-10.189-6.473-11.737-9.894-25.06-9.894-38.526 0-35.644 23.888-67.199 58.136-76.882 10.286-1.985 20.9-3.037 31.756-3.037 29.907 0 59.252 7.983 84.864 23.086 24.873 14.667 45.658 35.633 60.109 60.63 2.072 3.587 6.662 4.813 10.247 2.739 3.586-2.073 4.812-6.661 2.739-10.247-15.741-27.229-38.383-50.065-65.477-66.043-27.918-16.463-59.897-25.165-92.482-25.165-21.362 0-42.705 3.77-62.756 11.142-16.476 6.058-32.05 14.524-46.116 25.025-13.953 10.418-26.41 22.826-36.883 36.737-10.554 14.02-19.08 29.556-25.203 46.003-6.302 16.929-10.035 34.79-11.074 52.823-.204 3.531-.305 7.068-.305 10.605 0 51.147 21.687 100.262 59.501 134.751z"/><path d="m223.635 91.53c0 18.056 14.689 32.745 32.746 32.745s32.746-14.689 32.746-32.745c0-18.057-14.689-32.746-32.746-32.746s-32.746 14.69-32.746 32.746zm50.492 0c0 9.785-7.961 17.745-17.746 17.745s-17.746-7.96-17.746-17.745 7.96-17.746 17.746-17.746 17.746 7.961 17.746 17.746z"/></g></svg>