<svg id="Capa_1" enable-background="new 0 0 512 512" height="512" viewBox="0 0 512 512" width="512" xmlns="http://www.w3.org/2000/svg"><g><path d="m397 397c-34.463 0-62.5-28.037-62.5-62.5s28.037-62.5 62.5-62.5 62.5 28.037 62.5 62.5-28.037 62.5-62.5 62.5z"/><g><path d="m460.829 401.388c-16.612 15.86-39.103 25.612-63.829 25.612s-47.217-9.752-63.829-25.612c-30.831 20.65-51.171 55.799-51.171 95.612 0 8.284 6.716 15 15 15h200c8.284 0 15-6.716 15-15 0-39.813-20.34-74.962-51.171-95.612z"/><path d="m178.829 401.388c-16.612 15.86-39.103 25.612-63.829 25.612s-47.217-9.752-63.829-25.612c-30.831 20.65-51.171 55.799-51.171 95.612 0 8.284 6.716 15 15 15h200c8.284 0 15-6.716 15-15 0-39.813-20.34-74.962-51.171-95.612z"/></g><path d="m115 397c-34.463 0-62.5-28.037-62.5-62.5s28.037-62.5 62.5-62.5 62.5 28.037 62.5 62.5-28.037 62.5-62.5 62.5z"/><g><path d="m256 0c-33.084 0-60 26.916-60 60s26.916 60 60 60c49.626 0 90 40.374 90 90 0 10.471-1.804 20.528-5.107 29.883 30.546-24.771 50.107-62.583 50.107-104.883 0-74.439-60.561-135-135-135zm0 75c-8.284 0-15-6.716-15-15s6.716-15 15-15 15 6.716 15 15-6.716 15-15 15z"/><path d="m256 150c-49.626 0-90-40.374-90-90 0-10.471 1.804-20.528 5.107-29.883-30.546 24.771-50.107 62.583-50.107 104.883 0 74.439 60.561 135 135 135 33.084 0 60-26.916 60-60s-26.916-60-60-60zm0 75c-8.284 0-15-6.716-15-15s6.716-15 15-15 15 6.716 15 15-6.716 15-15 15z"/></g></g></svg>