<svg id="Capa_1" enable-background="new 0 0 512 512" height="512" viewBox="0 0 512 512" width="512" xmlns="http://www.w3.org/2000/svg"><g><path d="m256 .179c-141.159 0-256 114.761-256 255.821s114.841 255.82 256 255.82 256-114.761 256-255.82c0-141.06-114.841-255.821-256-255.821z" fill="#c66dd6"/><path d="m512 256c0-141.06-114.841-255.821-256-255.821v511.641c141.159 0 256-114.76 256-255.82z" fill="#825ccd"/><path d="m359 108.91v294.18c-29.61 19.44-65 40.77-103 40.77-103.69 0-188.05-84.27-188.05-187.86s84.36-187.86 188.05-187.86c38 0 73.39 21.33 103 40.77z" fill="#ededfc"/><path d="m359 108.91v294.18c-29.61 19.44-65 40.77-103 40.77v-375.72c38 0 73.39 21.33 103 40.77z" fill="#cacaed"/><path d="m258.426 68.171c50.752 1.287 91.512 42.841 91.512 93.904 0 51.878-42.06 93.932-93.938 93.925-51.878-.007-93.938 42.047-93.938 93.925 0 51.873 42.052 93.925 93.925 93.925v.009h.013c103.689 0 188.045-84.273 188.045-187.859 0-102.776-83.046-186.524-185.619-187.829z" fill="#963ea0"/><path d="m444.045 256c0-102.776-83.046-186.524-185.619-187.829 50.752 1.287 91.512 42.841 91.512 93.904 0 51.878-42.06 93.932-93.938 93.925v187.859c103.689 0 188.045-84.273 188.045-187.859z" fill="#5a3781"/><g><path d="m256 214.249c-25.738 0-46.677-20.939-46.677-46.678 0-25.737 20.939-46.677 46.677-46.677s46.677 20.939 46.677 46.677c0 25.739-20.939 46.678-46.677 46.678z" fill="#963ea0"/></g><g><path d="m256 390.509c-25.738 0-46.677-20.939-46.677-46.677s20.939-46.678 46.677-46.678 46.677 20.939 46.677 46.678c0 25.737-20.939 46.677-46.677 46.677z" fill="#ededfc"/></g><path d="m302.677 167.571c0-25.737-20.939-46.677-46.677-46.677v93.354c25.738.001 46.677-20.938 46.677-46.677z" fill="#5a3781"/><path d="m256 297.154v93.354c25.738 0 46.677-20.939 46.677-46.677 0-25.737-20.939-46.677-46.677-46.677z" fill="#cacaed"/></g></svg>